<?xml version="1.0" standalone="no"?><svg xmlns="http://www.w3.org/2000/svg" viewBox="0 0 1440 320">
    <path fill="#f5f5f5" fill-opacity="1"
        d="M0,224L21.8,197.3C43.6,171,87,117,131,101.3C174.5,85,218,107,262,117.3C305.5,128,349,128,393,112C436.4,96,480,64,524,58.7C567.3,53,611,75,655,90.7C698.2,107,742,117,785,106.7C829.1,96,873,64,916,74.7C960,85,1004,139,1047,144C1090.9,149,1135,107,1178,90.7C1221.8,75,1265,85,1309,80C1352.7,75,1396,53,1418,42.7L1440,32L1440,320L1418.2,320C1396.4,320,1353,320,1309,320C1265.5,320,1222,320,1178,320C1134.5,320,1091,320,1047,320C1003.6,320,960,320,916,320C872.7,320,829,320,785,320C741.8,320,698,320,655,320C610.9,320,567,320,524,320C480,320,436,320,393,320C349.1,320,305,320,262,320C218.2,320,175,320,131,320C87.3,320,44,320,22,320L0,320Z">
    </path>
</svg>