<svg width="416" height="373" viewBox="0 0 416 373" fill="none" xmlns="http://www.w3.org/2000/svg">
<path d="M159.44 217.891H61.0272L59.9839 187.633C59.9387 186.321 60.1784 185.015 60.6863 183.805C61.1942 182.595 61.9583 181.509 62.926 180.622C63.8937 179.736 65.042 179.069 66.2919 178.669C67.5418 178.269 68.8636 178.144 70.1664 178.304L127.436 185.316H127.443C135.933 185.339 144.068 188.727 150.066 194.736C156.063 200.746 159.434 208.888 159.44 217.378V217.891Z" fill="#F9A826"/>
<path d="M115.577 110.56H46.9389C46.0261 110.559 45.1222 110.739 44.2788 111.088C43.4354 111.437 42.669 111.949 42.0236 112.595C41.3781 113.24 40.8661 114.007 40.5169 114.85C40.1677 115.693 39.988 116.597 39.9883 117.51V186.148C39.988 187.061 40.1677 187.965 40.5169 188.808C40.8661 189.652 41.3781 190.418 42.0236 191.063C42.669 191.709 43.4354 192.221 44.2788 192.57C45.1222 192.919 46.0261 193.099 46.9389 193.099H115.577C116.49 193.099 117.394 192.919 118.237 192.57C119.08 192.221 119.847 191.709 120.492 191.063C121.138 190.418 121.65 189.652 121.999 188.808C122.348 187.965 122.528 187.061 122.528 186.148V117.51C122.528 116.597 122.348 115.693 121.999 114.85C121.65 114.007 121.138 113.24 120.492 112.595C119.847 111.949 119.08 111.437 118.237 111.088C117.394 110.739 116.49 110.559 115.577 110.56Z" fill="#CCCCCC"/>
<path d="M100.117 161.885L67.7103 168.196C65.788 168.568 63.7966 168.162 62.173 167.068C60.5494 165.973 59.4262 164.28 59.0497 162.358L56.5586 149.566C56.1865 147.644 56.5921 145.652 57.6864 144.029C58.7807 142.405 60.4744 141.282 62.3959 140.906L94.8028 134.595C96.7251 134.223 98.7165 134.628 100.34 135.723C101.964 136.817 103.087 138.511 103.463 140.432L105.954 153.224C106.327 155.147 105.921 157.138 104.827 158.761C103.732 160.385 102.039 161.508 100.117 161.885Z" fill="#3F3D56"/>
<path d="M93.6345 146.773L68.9029 151.589C68.4505 151.677 67.9817 151.582 67.5995 151.324C67.2173 151.067 66.9531 150.668 66.8651 150.216C66.777 149.763 66.8722 149.294 67.1298 148.912C67.3874 148.53 67.7862 148.266 68.2386 148.178L92.9702 143.362C93.4226 143.274 93.8914 143.369 94.2736 143.626C94.6558 143.884 94.9199 144.283 95.008 144.735C95.0961 145.187 95.0009 145.656 94.7433 146.038C94.4857 146.421 94.0869 146.685 93.6345 146.773Z" fill="white"/>
<path d="M88.8249 153.904L76.0327 156.395C75.5804 156.483 75.1115 156.388 74.7294 156.131C74.3472 155.873 74.083 155.474 73.9949 155.022C73.9068 154.57 74.0021 154.101 74.2597 153.719C74.5172 153.336 74.9161 153.072 75.3684 152.984L88.1606 150.493C88.3845 150.449 88.6149 150.45 88.8386 150.496C89.0622 150.541 89.2747 150.63 89.4639 150.758C89.6532 150.885 89.8154 151.049 89.9414 151.239C90.0674 151.429 90.1548 151.642 90.1984 151.866C90.242 152.09 90.241 152.321 90.1956 152.544C90.1502 152.768 90.0612 152.981 89.9337 153.17C89.8061 153.359 89.6425 153.521 89.4523 153.647C89.262 153.773 89.0488 153.861 88.8249 153.904Z" fill="white"/>
<path d="M122.527 117.51V126.633H39.9883V117.51C39.988 116.597 40.1677 115.693 40.5169 114.85C40.8661 114.007 41.3781 113.24 42.0235 112.595C42.669 111.949 43.4354 111.437 44.2788 111.088C45.1222 110.739 46.0261 110.559 46.9389 110.56H115.577C116.49 110.559 117.394 110.739 118.237 111.088C119.08 111.437 119.847 111.949 120.492 112.595C121.138 113.24 121.65 114.007 121.999 114.85C122.348 115.693 122.528 116.597 122.527 117.51Z" fill="#B3B3B3"/>
<path d="M287.349 129.49C286.873 127.952 286.065 126.537 284.982 125.345C283.9 124.152 282.569 123.212 281.084 122.59C279.599 121.968 277.995 121.679 276.386 121.743C274.777 121.808 273.202 122.224 271.771 122.964L177.342 89.084L173.183 112.674L267.312 138.559C268.713 140.88 270.917 142.606 273.506 143.411C276.095 144.215 278.889 144.042 281.359 142.925C283.829 141.807 285.803 139.822 286.907 137.345C288.011 134.869 288.169 132.074 287.349 129.49Z" fill="#FFB8B8"/>
<path opacity="0.2" d="M287.349 129.49C286.873 127.952 286.065 126.537 284.982 125.345C283.9 124.152 282.569 123.212 281.084 122.59C279.599 121.968 277.995 121.679 276.386 121.743C274.777 121.808 273.202 122.224 271.771 122.964L177.342 89.084L173.183 112.674L267.312 138.559C268.713 140.88 270.917 142.606 273.506 143.411C276.095 144.215 278.889 144.042 281.359 142.925C283.829 141.807 285.803 139.822 286.907 137.345C288.011 134.869 288.169 132.074 287.349 129.49Z" fill="black"/>
<path d="M194.106 93.3839L185.189 116.68C184.935 117.343 184.541 117.943 184.035 118.44C183.528 118.937 182.92 119.319 182.253 119.56C181.585 119.801 180.873 119.895 180.166 119.836C179.459 119.777 178.772 119.566 178.154 119.218L156.482 107.021C153.099 105.703 150.376 103.098 148.91 99.7755C147.445 96.4534 147.356 92.6856 148.664 89.2984C149.972 85.9111 152.57 83.1807 155.888 81.7057C159.205 80.2306 162.973 80.1314 166.364 81.4298L190.564 86.797C191.257 86.9509 191.908 87.2523 192.474 87.6807C193.04 88.1091 193.507 88.6544 193.843 89.2795C194.179 89.9046 194.377 90.5948 194.422 91.3031C194.467 92.0113 194.359 92.7211 194.106 93.3839Z" fill="#F9A826"/>
<path d="M294.782 151.061L260.946 166.441L265.389 183.165C273.967 215.46 276.244 249.106 272.094 282.263L296.833 287.43L317.339 235.138L310.162 175.669L294.782 151.061Z" fill="#F9A826"/>
<path d="M361.173 228.474C338.941 228.474 320.824 244.635 319.945 264.873H402.4C401.521 244.635 383.404 228.474 361.173 228.474Z" fill="#3F3D56"/>
<path d="M343.866 231.962C342.709 140.607 290.68 149.011 290.68 149.011C290.68 149.011 291.654 177.447 292.121 178.331C325.276 241.061 270.558 314.602 200.908 301.073C199.595 300.817 198.333 300.559 197.123 300.296C188.298 298.454 180.506 293.319 175.332 285.935C170.158 278.552 167.991 269.476 169.272 260.551C176.133 205.455 142.007 206.43 142.007 206.43H92.1081L66.1945 183.108C65.2799 182.284 64.1774 181.698 62.9836 181.399C61.7898 181.1 60.541 181.099 59.3464 181.394C58.1518 181.69 57.0478 182.273 56.1309 183.094C55.214 183.915 54.5122 184.948 54.0867 186.102L50.7529 195.151C50.7529 195.151 1.53698 200.278 5.63831 248.468H20.8541C20.8173 249.838 20.8722 251.208 21.0183 252.57L134.575 251.646C141.231 251.592 147.107 256.986 147.134 263.642C147.141 265.263 146.821 266.868 146.193 268.362C145.565 269.856 144.642 271.208 143.48 272.337C142.317 273.467 140.939 274.35 139.427 274.934C137.916 275.518 136.302 275.791 134.682 275.737L116.374 275.127C110.735 300.248 124.577 317.165 139.829 327.803C154.188 337.674 171.228 342.907 188.652 342.799H238.389C302.985 342.799 314.263 288.456 314.263 288.456C348.099 274.102 343.866 231.962 343.866 231.962Z" fill="#3F3D56"/>
<path d="M358.097 372.534C389.95 372.534 415.772 346.712 415.772 314.859C415.772 283.006 389.95 257.184 358.097 257.184C326.244 257.184 300.422 283.006 300.422 314.859C300.422 346.712 326.244 372.534 358.097 372.534Z" fill="#3F3D56"/>
<path d="M358.099 328.993C365.906 328.993 372.235 322.664 372.235 314.857C372.235 307.05 365.906 300.721 358.099 300.721C350.292 300.721 343.963 307.05 343.963 314.857C343.963 322.664 350.292 328.993 358.099 328.993Z" fill="white"/>
<path d="M66.9029 372.532C103.569 372.532 133.293 342.809 133.293 306.142C133.293 269.476 103.569 239.752 66.9029 239.752C30.2366 239.752 0.512695 269.476 0.512695 306.142C0.512695 342.809 30.2366 372.532 66.9029 372.532Z" fill="#3F3D56"/>
<path d="M66.901 322.414C75.8879 322.414 83.1732 315.129 83.1732 306.142C83.1732 297.155 75.8879 289.87 66.901 289.87C57.9142 289.87 50.6289 297.155 50.6289 306.142C50.6289 315.129 57.9142 322.414 66.901 322.414Z" fill="white"/>
<path d="M261.041 170.986L248.867 137.92C248.233 136.196 247.944 134.365 248.017 132.53C248.09 130.695 248.524 128.893 249.294 127.225C250.064 125.558 251.155 124.059 252.505 122.813C253.854 121.568 255.435 120.6 257.159 119.966L292.061 107.117C295.093 106 298.316 105.492 301.545 105.621C304.773 105.749 307.945 106.513 310.879 107.867C313.812 109.222 316.45 111.141 318.642 113.515C320.834 115.889 322.537 118.672 323.654 121.704C324.66 124.426 325.175 127.305 325.172 130.207C325.159 133.891 324.325 137.527 322.731 140.849C321.137 144.171 318.823 147.096 315.957 149.411C313.886 151.072 311.559 152.384 309.066 153.296L261.041 170.986Z" fill="#3F3D56"/>
<path d="M324.661 130.206C324.659 133.816 323.847 137.379 322.285 140.633C320.723 143.887 318.452 146.75 315.638 149.011C311.321 147.872 307.304 145.807 303.865 142.959C300.427 140.11 297.65 136.547 295.728 132.518C293.806 128.488 292.784 124.087 292.734 119.623C292.685 115.158 293.608 110.736 295.439 106.665C298.956 105.9 302.6 105.932 306.102 106.76C309.605 107.588 312.878 109.189 315.681 111.447C318.483 113.705 320.745 116.562 322.299 119.808C323.853 123.054 324.66 126.607 324.661 130.206Z" fill="#F9A826"/>
<path d="M14.3546 255.133C22.2825 255.133 28.7093 247.329 28.7093 237.702C28.7093 228.075 22.2825 220.271 14.3546 220.271C6.42679 220.271 0 228.075 0 237.702C0 247.329 6.42679 255.133 14.3546 255.133Z" fill="#F9A826"/>
<path d="M204.105 299.401H216.675L222.656 266.799L204.103 266.8L204.105 299.401Z" fill="#FFB8B8"/>
<path d="M200.898 295.298L225.654 295.297H225.655C227.727 295.297 229.778 295.705 231.692 296.498C233.606 297.29 235.345 298.452 236.81 299.917C238.275 301.382 239.437 303.122 240.23 305.036C241.023 306.95 241.431 309.001 241.431 311.073V311.586L200.899 311.587L200.898 295.298Z" fill="#2F2E41"/>
<path d="M218.694 286.022C218.548 286.022 218.401 286.015 218.253 286.001L200.857 284.734C200.153 284.669 199.474 284.443 198.872 284.073C198.27 283.704 197.76 283.201 197.383 282.604C197.005 282.007 196.77 281.331 196.695 280.628C196.62 279.926 196.708 279.215 196.951 278.552L220.233 226.245C220.399 225.779 220.467 225.283 220.433 224.789C220.398 224.295 220.261 223.814 220.032 223.375C219.802 222.932 219.482 222.541 219.091 222.23C218.7 221.919 218.248 221.695 217.764 221.571C206.817 218.709 178.728 211.089 154.413 202.174C143.996 198.354 137.435 192.834 134.912 185.766C131.587 176.449 136.506 167.952 136.717 167.596L136.882 167.316L159.762 169.396L184.566 171.506L238.923 200.654C243.477 203.117 246.937 207.205 248.613 212.104C250.288 217.004 250.057 222.355 247.965 227.091L222.905 283.287C222.542 284.101 221.951 284.792 221.204 285.278C220.457 285.763 219.585 286.021 218.694 286.022Z" fill="#2F2E41"/>
<path d="M163.74 65.9094C177.648 65.9094 188.923 54.6345 188.923 40.7262C188.923 26.8179 177.648 15.543 163.74 15.543C149.832 15.543 138.557 26.8179 138.557 40.7262C138.557 54.6345 149.832 65.9094 163.74 65.9094Z" fill="#FFB8B8"/>
<path d="M196.928 302.477H209.498L215.479 269.875L196.926 269.876L196.928 302.477Z" fill="#FFB8B8"/>
<path d="M193.721 298.374L218.476 298.373H218.477C220.549 298.373 222.6 298.781 224.514 299.574C226.428 300.367 228.168 301.529 229.633 302.994C231.097 304.459 232.26 306.198 233.052 308.112C233.845 310.026 234.253 312.077 234.253 314.149V314.662L193.722 314.663L193.721 298.374Z" fill="#2F2E41"/>
<path d="M211.518 289.097C211.371 289.097 211.224 289.09 211.076 289.076L193.68 287.809C192.977 287.744 192.297 287.518 191.695 287.149C191.093 286.779 190.583 286.277 190.206 285.679C189.828 285.082 189.593 284.406 189.518 283.703C189.444 283.001 189.531 282.29 189.774 281.627L213.056 229.32C213.222 228.854 213.29 228.358 213.256 227.864C213.221 227.37 213.085 226.889 212.855 226.45C212.626 226.007 212.305 225.617 211.914 225.306C211.524 224.995 211.071 224.77 210.588 224.646C199.64 221.784 171.551 214.164 147.236 205.249C136.819 201.429 130.258 195.909 127.735 188.842C124.41 179.524 129.33 171.027 129.541 170.671L129.706 170.392L152.586 172.471L177.39 174.581L231.746 203.729C236.3 206.192 239.76 210.28 241.436 215.18C243.111 220.079 242.88 225.43 240.788 230.166L215.728 286.362C215.365 287.176 214.775 287.867 214.027 288.353C213.28 288.838 212.408 289.096 211.518 289.097Z" fill="#2F2E41"/>
<path d="M171.508 80.1899L144.85 70.9619C144.85 70.9619 128.114 83.8196 136.154 115.716C140.351 132.176 139.128 149.551 132.668 165.26C131.89 167.204 130.993 169.098 129.982 170.932C129.982 170.932 159.717 206.818 187.401 180.16L176.635 128.38C176.635 128.38 193.553 94.0319 171.508 80.1899Z" fill="#F9A826"/>
<path d="M166.866 66.7661C163.282 61.4012 160.453 53.9622 164.399 48.8577C168.295 43.8191 175.978 44.5614 181.943 42.3318C190.253 39.2264 195.072 29.4646 193.569 20.7223C192.066 11.98 185.048 4.73284 176.688 1.76755C168.327 -1.19774 158.9 -0.233362 150.713 3.18135C140.635 7.3849 131.989 15.5164 128.364 25.8168C124.739 36.1173 126.677 48.4849 134.197 56.4021C142.26 64.8901 154.915 67.1522 166.621 67.015" fill="#2F2E41"/>
<path d="M143.445 21.003C138.929 24.6797 132.038 23.0467 127.19 19.8199C122.342 16.5932 118.408 11.9984 113.162 9.46852C103.914 5.00838 92.7337 7.97335 83.7335 12.9137C74.7332 17.8541 66.7548 24.6794 57.2478 28.5564C47.7409 32.4333 35.6093 32.6249 28.4106 25.3044C26.639 30.437 26.4942 35.9913 27.9959 41.2092C29.4975 46.4272 32.5725 51.0548 36.8013 54.4606C41.0301 57.8665 46.2067 59.8847 51.6248 60.2398C57.043 60.595 62.4387 59.2699 67.0759 56.4452C77.4927 50.1001 83.2465 36.7961 94.93 33.2939C101.395 31.356 108.338 32.9168 114.872 34.6074C121.406 36.298 128.219 38.1248 134.814 36.6855C141.408 35.2463 147.576 29.3204 146.737 22.6234L143.445 21.003Z" fill="#2F2E41"/>
<path d="M286.097 128.466C285.434 126.998 284.458 125.694 283.236 124.644C282.015 123.595 280.578 122.826 279.028 122.392C277.477 121.958 275.85 121.869 274.261 122.131C272.673 122.394 271.161 123.002 269.832 123.912L171.944 101.942L170.728 125.865L267.331 139.938C269.008 142.068 271.408 143.51 274.076 143.989C276.745 144.468 279.496 143.951 281.809 142.537C284.123 141.123 285.837 138.91 286.627 136.316C287.417 133.723 287.228 130.93 286.097 128.466Z" fill="#FFB8B8"/>
<path d="M189.109 104.139L183.134 128.357C182.964 129.046 182.648 129.69 182.206 130.246C181.765 130.802 181.209 131.256 180.576 131.577C179.943 131.899 179.249 132.08 178.54 132.109C177.83 132.137 177.123 132.013 176.467 131.744L153.456 122.313C149.933 121.425 146.907 119.176 145.04 116.06C143.174 112.943 142.62 109.213 143.501 105.689C144.381 102.164 146.624 99.1332 149.737 97.2603C152.849 95.3874 156.578 94.8259 160.104 95.6989L184.782 98.0392C185.488 98.1064 186.172 98.3251 186.786 98.6804C187.401 99.0357 187.931 99.5193 188.342 100.098C188.753 100.677 189.034 101.338 189.166 102.035C189.298 102.732 189.279 103.45 189.109 104.139V104.139Z" fill="#F9A826"/>
<path d="M274.79 147.473C278.754 147.473 281.967 144.259 281.967 140.295C281.967 136.332 278.754 133.118 274.79 133.118C270.826 133.118 267.612 136.332 267.612 140.295C267.612 144.259 270.826 147.473 274.79 147.473Z" fill="#F9A826"/>
</svg>
