<svg width="247" height="261" viewBox="0 0 247 261" fill="none" xmlns="http://www.w3.org/2000/svg">
<path d="M245.875 194.676C242.953 217.571 232.208 238.519 220.744 258.697C220.365 259.384 219.975 260.061 219.576 260.748H100.432C98.0222 260.123 95.6436 259.436 93.275 258.697C79.8181 254.6 67.1138 248.35 55.6557 240.19C11.8227 208.61 -5.04417 148.936 2.57424 95.4646C7.31139 62.2438 21.8913 28.3259 50.2827 10.4339C65.2732 0.970041 84.5287 -2.10594 101.785 1.41095C102.237 1.49297 102.688 1.59549 103.149 1.68777C117.996 5.03035 131.222 13.3355 138.749 26.7161C152.283 50.7601 144.224 80.546 137.57 107.307C130.936 134.068 127.336 166.1 146.592 185.837C140.235 167.125 146.51 144.804 161.695 132.151C173.169 122.605 189.144 119.027 203.714 121.99C205.108 122.287 206.482 122.626 207.835 123.036C211.106 123.994 214.26 125.314 217.238 126.973C239.949 139.656 249.146 168.868 245.875 194.676Z" fill="#27AE60"/>
<path d="M175.234 258.698C178.535 259.467 181.847 260.143 185.179 260.748H167.164C164.806 260.113 162.458 259.436 160.131 258.698C155.014 257.098 149.976 255.263 145.017 253.192C125.126 244.845 106.803 232.316 92.9403 215.644C86.1606 207.567 80.6244 198.523 76.5145 188.811C72.0579 177.834 69.2256 166.267 68.1071 154.473C65.5948 130.275 68.1581 105.411 72.9464 81.6434C77.8878 57.01 85.8642 33.0843 96.6932 10.4136C97.9954 7.69656 99.3419 4.99653 100.733 2.31354C100.829 2.09267 100.973 1.89657 101.156 1.7402C101.339 1.58383 101.556 1.47132 101.789 1.41124C102.262 1.31949 102.753 1.41903 103.153 1.68807C103.633 1.96355 103.989 2.41294 104.147 2.94339C104.306 3.47383 104.254 4.04483 104.004 4.53849C92.8384 26.3123 84.3749 49.3684 78.801 73.1947C73.3464 96.439 70.2498 120.76 71.3057 144.66C72.3105 166.992 78.1451 188.955 91.3818 207.216C103.47 223.888 120.163 237.032 138.629 245.984C150.317 251.576 162.596 255.84 175.234 258.698Z" fill="white"/>
<path d="M214.768 260.748H209.456C208.862 260.072 208.287 259.385 207.724 258.698C195.626 243.999 187.43 226.486 183.895 207.78C179.601 184.435 182.941 160.329 193.42 139.031C196.343 133.059 199.788 127.357 203.714 121.99C205.109 122.288 206.483 122.626 207.836 123.036C197.51 136.718 190.564 152.647 187.565 169.525C184.89 185.339 185.78 201.552 190.168 216.979C194.557 232.406 202.334 246.659 212.932 258.698C213.527 259.385 214.142 260.072 214.768 260.748Z" fill="white"/>
</svg>
